Coordinates
version=1
nRows=17
nColumns=36
inDegrees=yes

Units are S.I. units (second, meters, Newtons, ...)
If the header above contains a line with 'inDegrees', this indicates whether rotational values are in degrees (yes) or radians (no).

endheader
time	pelvis_tilt	pelvis_list	pelvis_rotation	pelvis_tx	pelvis_ty	pelvis_tz	hip_flexion_r	hip_adduction_r	hip_rotation_r	knee_angle_r	knee_angle_r_beta	ankle_angle_r	subtalar_angle_r	mtp_angle_r	hip_flexion_l	hip_adduction_l	hip_rotation_l	knee_angle_l	knee_angle_l_beta	ankle_angle_l	subtalar_angle_l	mtp_angle_l	lumbar_extension	lumbar_bending	lumbar_rotation	arm_flex_r	arm_add_r	arm_rot_r	elbow_flex_r	pro_sup_r	arm_flex_l	arm_add_l	arm_rot_l	elbow_flex_l	pro_sup_l
      0.00000000	     -2.69894990	     -0.25179009	     -2.17062218	     -0.19143465	      1.05067125	     -0.63891850	      4.60958582	     -6.72775651	     -7.44040427	      4.80476979	      0.08385905	      5.33499260	      5.63859174	     -3.89183091	      3.82554292	     -6.76697416	     -4.77134473	      2.91391125	      0.05085735	      5.38388041	      8.72740477	     -3.89183091	     -2.87818469	      0.26875723	     -5.36315191	     -8.10923204	     -6.58685419	     -8.26001193	     43.44736559	    100.56725113	    -13.39313647	     -5.26258101	     -9.38818646	     46.43811210	     87.56854180
      0.01000000	     -2.66108858	     -0.27373227	     -2.17015389	     -0.19143336	      1.05070746	     -0.63896109	      4.57891359	     -6.70897239	     -7.48735290	      4.82430133	      0.08419994	      5.34666835	      5.69187898	     -5.28147298	      3.81041567	     -6.79668662	     -4.83684199	      2.96450328	      0.05174034	      5.41705011	      8.82428995	     -5.28147298	     -2.94280872	      0.28160305	     -5.41451306	     -8.05171092	     -6.61239612	     -8.18338476	     43.37212384	    101.05521915	    -13.42358539	     -5.24027001	     -9.54325952	     46.38006843	     88.93235580
      0.02000000	     -2.71050547	     -0.28424384	     -2.14333378	     -0.19150310	      1.05065657	     -0.63902614	      4.62426335	     -6.69011179	     -7.36175951	      4.81783168	      0.08408703	      5.31380759	      5.51301425	     -5.61779037	      3.86315290	     -6.79322555	     -4.48412669	      2.94985695	      0.05148472	      5.30150311	      8.46965153	     -5.61779037	     -2.90708702	      0.29426259	     -5.39263726	     -8.10080551	     -6.55644236	     -8.12232168	     43.66933798	     97.39512651	    -13.34783036	     -5.24535826	     -9.32809087	     46.67874853	     85.73091900
      0.03000000	     -2.65037635	     -0.28380477	     -2.19126943	     -0.19148101	      1.05072307	     -0.63897050	      4.59006666	     -6.69762426	     -7.35351188	      4.85852278	      0.08479722	      5.29860113	      5.53900659	     -6.15245541	      3.84254131	     -6.81949386	     -4.88456351	      3.04921465	      0.05321884	      5.46683376	      8.88275906	     -6.15245541	     -3.00809911	      0.27059508	     -5.38062877	     -8.06770671	     -6.60969316	     -8.16138553	     43.43721709	    100.91874462	    -13.41261461	     -5.26589278	     -9.48274911	     46.49337038	     88.98243929
      0.04000000	     -2.83678298	     -0.26544616	     -2.20433869	     -0.19150881	      1.05045163	     -0.63898373	      4.84088719	     -6.70950899	     -7.32342040	      4.93369625	      0.08610924	      5.30743903	      5.38648041	     -6.18780986	      4.09597864	     -6.80615274	     -4.89860827	      3.14491325	      0.05488909	      5.51267109	      8.68855385	     -6.18780986	     -2.81022828	      0.26136874	     -5.33977807	     -8.21680733	     -6.61855981	     -8.15082728	     43.72126033	    100.46930990	    -13.51912077	     -5.26578301	     -9.44980911	     46.77659620	     88.53444585
      0.05000000	     -2.67391705	     -0.23372712	     -2.21741970	     -0.19159633	      1.05070630	     -0.63899522	      4.65265490	     -6.74409226	     -7.16470997	      4.89936324	      0.08551002	      5.28313304	      5.35448256	     -6.23949458	      3.90601645	     -6.75679498	     -4.73240001	      3.12584139	      0.05455622	      5.45551512	      8.71659257	     -6.23949458	     -3.04160321	      0.21589668	     -5.36474935	     -8.08285349	     -6.56510626	     -8.18034584	     43.62793984	     99.90668919	    -13.44146526	     -5.27626583	     -9.45825937	     46.78564534	     87.96085738
      0.06000000	     -2.57769051	     -0.22952802	     -2.23965063	     -0.19164147	      1.05085412	     -0.63895232	      4.58084992	     -6.75177423	     -7.21261350	      4.93729405	      0.08617204	      5.24416152	      5.31211908	     -6.34718097	      3.84197914	     -6.76142956	     -4.93190952	      3.20645945	      0.05596327	      5.52377170	      8.83303176	     -6.34718097	     -3.19137582	      0.20643260	     -5.35683004	     -8.04368580	     -6.58114702	     -8.03702929	     43.69967072	     98.58360196	    -13.44424410	     -5.30102766	     -9.40392694	     47.02269604	     86.86134367
      0.07000000	     -2.60024953	     -0.22158721	     -2.25066872	     -0.19170801	      1.05083250	     -0.63894649	      4.63729569	     -6.76160054	     -7.12928398	      4.99441933	      0.08716906	      5.28398417	      5.26067263	     -6.38939058	      3.89621103	     -6.75502204	     -4.87419128	      3.26276533	      0.05694600	      5.52313526	      8.74941239	     -6.38939058	     -3.20383906	      0.20023510	     -5.36828775	     -8.04919419	     -6.58249239	     -8.01323442	     43.81012223	     98.19914263	    -13.49805994	     -5.31738942	     -9.42348556	     47.22803080	     86.44138767
      0.08000000	     -2.57869418	     -0.22610875	     -2.26573855	     -0.19179465	      1.05086035	     -0.63895363	      4.65148252	     -6.75824809	     -7.10244724	      5.04982218	      0.08813602	      5.29424661	      5.21119651	     -6.42916946	      3.91574297	     -6.76023670	     -4.86706089	      3.34119782	      0.05831490	      5.54707425	      8.65357121	     -6.42916946	     -3.28107495	      0.20391310	     -5.37022344	     -8.03466410	     -6.58303893	     -7.98339648	     43.90147474	     97.88191472	    -13.53309017	     -5.32161948	     -9.45315352	     47.42309980	     86.06925475
      0.09000000	     -2.55180670	     -0.24034395	     -2.28199528	     -0.19187437	      1.05085962	     -0.63893434	      4.66921797	     -6.75061094	     -7.13365946	      5.12500825	      0.08944827	      5.33449006	      5.29075759	     -6.60237737	      3.94989541	     -6.78223235	     -4.97355033	      3.45882082	      0.06036781	      5.62357678	      8.72909437	     -6.60237737	     -3.36774513	      0.20946155	     -5.43510427	     -7.99584596	     -6.57609790	     -8.15270870	     43.78373564	    101.05345665	    -13.65756393	     -5.24149523	     -9.91592937	     47.49835746	     88.45943414
      0.10000000	     -2.69669409	     -0.25017024	     -2.28628844	     -0.19203849	      1.05064865	     -0.63892163	      4.82823261	     -6.71712194	     -6.75003842	      5.11518577	      0.08927683	      5.21905280	      5.12577457	     -6.69724937	      4.14373351	     -6.79280145	     -4.65520379	      3.52582987	      0.06153734	      5.49447249	      8.60232265	     -6.69724937	     -3.26169832	      0.22865489	     -5.36208254	     -8.14761822	     -6.57378279	     -8.11565205	     44.24256410	     99.13326321	    -13.70753123	     -5.27565957	     -9.80077909	     47.92241345	     86.67569625
      0.11000000	     -2.49630104	     -0.27812719	     -2.33019528	     -0.19214924	      1.05088076	     -0.63887939	      4.71597297	     -6.70006457	     -6.92529931	      5.28342929	      0.09221324	      5.29194716	      4.97284647	     -6.76219363	      3.95479268	     -6.81431876	     -4.83658311	      3.57990471	      0.06248112	      5.59378158	      8.41024463	     -6.76219363	     -3.56049011	      0.25964648	     -5.33106890	     -8.05539985	     -6.58415867	     -8.03062097	     44.30185942	     98.05818628	    -13.67674407	     -5.31411567	     -9.69823042	     48.12781998	     85.68538878
      0.12000000	     -2.47998353	     -0.26616120	     -2.34060949	     -0.19230192	      1.05082408	     -0.63892573	      4.83306246	     -6.76998081	     -7.34838960	      5.52405970	      0.09641303	      5.67502700	      5.73182517	     -6.94572302	      4.02206887	     -6.81778668	     -4.94731797	      3.74222102	      0.06531408	      5.79827104	      8.65771177	     -6.94572302	     -3.65978929	      0.23884282	     -5.50244957	     -7.94094273	     -6.71232352	     -7.49970397	     44.36556959	     97.94128640	    -13.89250492	     -5.27914591	     -9.88933087	     48.58502339	     85.40806971
      0.13000000	     -2.46593666	     -0.25437379	     -2.35956693	     -0.19256888	      1.05077855	     -0.63901110	      4.92413433	     -6.80840865	     -7.37361376	      5.69597881	      0.09941358	      5.73813896	      5.77393849	     -7.10140220	      4.04955766	     -6.77727482	     -4.63462788	      3.80044224	      0.06633023	      5.56521881	      8.03244635	     -7.10140220	     -3.77310201	      0.23540808	     -5.43790933	     -8.03145878	     -6.71155817	     -7.73924087	     44.57694785	     99.72482959	    -13.87523388	     -5.26769072	    -10.00823362	     48.59305474	     86.95030868
      0.14000000	     -2.46013164	     -0.27044857	     -2.47884183	     -0.19290148	      1.05071812	     -0.63887596	      5.00937847	     -6.75614989	     -6.86701951	      5.78119825	      0.10090094	      5.53289660	      5.09817794	     -7.22505539	      4.16057703	     -6.84263970	     -5.08271677	      4.04286544	      0.07056131	      5.80312113	      8.52147984	     -7.22505539	     -3.90203478	      0.25140439	     -5.31103618	     -8.12129318	     -6.74989959	     -7.84919094	     44.92191363	    101.08380803	    -13.93224254	     -5.25814544	    -10.16505205	     48.77695247	     88.40294817
      0.15000000	     -2.57579054	     -0.27839182	     -2.50325119	     -0.19322507	      1.05050966	     -0.63887113	      5.25283832	     -6.74639433	     -6.76703665	      5.96172101	      0.10405166	      5.51822680	      5.00917892	     -7.23578996	      4.37388130	     -6.85722058	     -4.90333329	      4.19519492	      0.07321996	      5.85189082	      8.33195021	     -7.23578996	     -3.87473178	      0.28534221	     -5.29889678	     -8.19177792	     -6.76266231	     -7.81327388	     45.30949200	    100.45987573	    -14.03153888	     -5.31732452	    -10.06834729	     49.09977559	     87.83826042
      0.16000000	     -2.48667596	     -0.27171492	     -2.52978507	     -0.19355855	      1.05058339	     -0.63883208	      5.25141325	     -6.75503149	     -6.71622801	      6.09229979	      0.10633069	      5.53938101	      4.86306605	     -7.24399807	      4.36913377	     -6.84437499	     -4.80197751	      4.34146474	      0.07577285	      5.83183245	      8.01615501	     -7.24399807	     -4.11286278	      0.26504824	     -5.27269350	     -8.19142594	     -6.79099677	     -7.76347173	     45.63495616	    100.17277565	    -14.07746186	     -5.41516460	     -9.96166533	     49.47009590	     87.47370328
